# Blender v2.77 (sub 0) OBJ File: ''
# www.blender.org
o Cube.016_Cube.017
v 0.232359 2.165325 0.026601
v 0.060017 1.902835 0.026601
v 0.232359 2.165325 -0.079252
v 0.060017 1.902835 -0.079252
v 0.320844 2.107229 0.026601
v 0.148502 1.844738 0.026601
v 0.320844 2.107229 -0.079252
v 0.148502 1.844738 -0.079252
vt 0.6669 0.0002
vt 0.9998 0.3331
vt 0.9998 0.0002
vt 0.0002 0.0002
vt 0.3331 0.3331
vt 0.3331 0.0002
vt 0.3331 0.6669
vt 0.0002 0.9998
vt 0.0002 0.6669
vt 0.3335 0.3335
vt 0.6665 0.6665
vt 0.3335 0.6665
vt 0.6665 0.0002
vt 0.3335 0.3331
vt 0.6665 0.3331
vt 0.0002 0.3335
vt 0.3331 0.6665
vt 0.0002 0.6665
vt 0.6669 0.3331
vt 0.0002 0.3331
vt 0.3331 0.9998
vt 0.6665 0.3335
vt 0.3335 0.0002
vt 0.3331 0.3335
vn 0.8359 -0.5488 0.0000
vn 0.0000 0.0000 1.0000
vn -0.8359 0.5488 0.0000
vn 0.0000 0.0000 -1.0000
vn -0.5488 -0.8359 0.0000
vn 0.5488 0.8359 0.0000
s off
f 4/1/1 1/2/1 2/3/1
f 8/4/2 3/5/2 4/6/2
f 6/7/3 7/8/3 8/9/3
f 6/10/4 1/11/4 5/12/4
f 3/13/5 5/14/5 1/15/5
f 8/16/6 2/17/6 6/18/6
f 4/1/1 3/19/1 1/2/1
f 8/4/2 7/20/2 3/5/2
f 6/7/3 5/21/3 7/8/3
f 6/10/4 2/22/4 1/11/4
f 3/13/5 7/23/5 5/14/5
f 8/16/6 4/24/6 2/17/6
o Cube_Cube.001
v 0.219409 0.155625 0.056728
v 0.219409 -0.003567 0.056728
v 0.219409 0.155625 -0.220928
v 0.219409 -0.003567 -0.220928
v 0.378601 0.155625 0.056728
v 0.378601 -0.003567 0.056728
v 0.378601 0.155625 -0.220928
v 0.378601 -0.003567 -0.220928
vt 0.0002 0.0002
vt 0.3331 0.3331
vt 0.3331 0.0002
vt 0.3335 0.3335
vt 0.6665 0.6665
vt 0.6665 0.3335
vt 0.3331 0.3335
vt 0.0002 0.6665
vt 0.0002 0.3335
vt 0.3331 0.6669
vt 0.0002 0.9998
vt 0.0002 0.6669
vt 0.6665 0.0002
vt 0.3335 0.3331
vt 0.6665 0.3331
vt 0.6669 0.0002
vt 0.9998 0.3331
vt 0.6669 0.3331
vt 0.0002 0.3331
vt 0.3335 0.6665
vt 0.3331 0.6665
vt 0.3331 0.9998
vt 0.3335 0.0002
vt 0.9998 0.0002
vn 1.0000 0.0000 -0.0000
vn 0.0000 0.0000 1.0000
vn -1.0000 0.0000 0.0000
vn -0.0000 0.0000 -1.0000
vn 0.0000 -1.0000 0.0000
vn 0.0000 1.0000 0.0000
s off
f 12/25/7 9/26/7 10/27/7
f 16/28/8 11/29/8 12/30/8
f 14/31/9 15/32/9 16/33/9
f 10/34/10 13/35/10 14/36/10
f 11/37/11 13/38/11 9/39/11
f 16/40/12 10/41/12 14/42/12
f 12/25/7 11/43/7 9/26/7
f 16/28/8 15/44/8 11/29/8
f 14/31/9 13/45/9 15/32/9
f 10/34/10 9/46/10 13/35/10
f 11/37/11 15/47/11 13/38/11
f 16/40/12 12/48/12 10/41/12
o Cube.001_Cube.002
v -0.338518 0.155625 0.056728
v -0.338518 -0.003567 0.056728
v -0.338518 0.155625 -0.220928
v -0.338518 -0.003567 -0.220928
v -0.179326 0.155625 0.056728
v -0.179326 -0.003567 0.056728
v -0.179326 0.155625 -0.220928
v -0.179326 -0.003567 -0.220928
vt 0.0002 0.0002
vt 0.3331 0.3331
vt 0.3331 0.0002
vt 0.3335 0.0002
vt 0.6665 0.3331
vt 0.6665 0.0002
vt 0.6665 0.3335
vt 0.3335 0.6665
vt 0.3335 0.3335
vt 0.9998 0.0002
vt 0.6669 0.3331
vt 0.6669 0.0002
vt 0.3331 0.6669
vt 0.0002 0.9998
vt 0.3331 0.9998
vt 0.0002 0.3335
vt 0.3331 0.6665
vt 0.0002 0.6665
vt 0.0002 0.3331
vt 0.3335 0.3331
vt 0.6665 0.6665
vt 0.9998 0.3331
vt 0.0002 0.6669
vt 0.3331 0.3335
vn 1.0000 0.0000 -0.0000
vn 0.0000 0.0000 1.0000
vn -1.0000 0.0000 0.0000
vn -0.0000 0.0000 -1.0000
vn 0.0000 -1.0000 0.0000
vn 0.0000 1.0000 0.0000
s off
f 20/49/13 17/50/13 18/51/13
f 24/52/14 19/53/14 20/54/14
f 22/55/15 23/56/15 24/57/15
f 18/58/16 21/59/16 22/60/16
f 19/61/17 21/62/17 17/63/17
f 24/64/18 18/65/18 22/66/18
f 20/49/13 19/67/13 17/50/13
f 24/52/14 23/68/14 19/53/14
f 22/55/15 21/69/15 23/56/15
f 18/58/16 17/70/16 21/59/16
f 19/61/17 23/71/17 21/62/17
f 24/64/18 20/72/18 18/65/18
o Cube.002_Cube.003
v -0.338518 0.414443 0.062008
v -0.338518 0.255251 0.062008
v -0.338518 0.414443 -0.041155
v -0.338518 0.255251 -0.041155
v -0.179326 0.414443 0.062008
v -0.179326 0.255251 0.062008
v -0.179326 0.414443 -0.041155
v -0.179326 0.255251 -0.041155
vt 0.6669 0.0002
vt 0.9998 0.3331
vt 0.9998 0.0002
vt 0.0002 0.0002
vt 0.3331 0.3331
vt 0.3331 0.0002
vt 0.6665 0.0002
vt 0.3335 0.3331
vt 0.3335 0.0002
vt 0.3331 0.3335
vt 0.0002 0.6665
vt 0.0002 0.3335
vt 0.3331 0.6669
vt 0.0002 0.9998
vt 0.3331 0.9998
vt 0.3335 0.6665
vt 0.6665 0.3335
vt 0.6665 0.6665
vt 0.6669 0.3331
vt 0.0002 0.3331
vt 0.6665 0.3331
vt 0.3331 0.6665
vt 0.0002 0.6669
vt 0.3335 0.3335
vn 1.0000 0.0000 0.0000
vn 0.0000 0.0000 1.0000
vn -1.0000 0.0000 0.0000
vn -0.0000 0.0000 -1.0000
vn 0.0000 -1.0000 0.0000
vn 0.0000 1.0000 0.0000
s off
f 28/73/19 25/74/19 26/75/19
f 32/76/20 27/77/20 28/78/20
f 30/79/21 31/80/21 32/81/21
f 26/82/22 29/83/22 30/84/22
f 27/85/23 29/86/23 25/87/23
f 30/88/24 28/89/24 26/90/24
f 28/73/19 27/91/19 25/74/19
f 32/76/20 31/92/20 27/77/20
f 30/79/21 29/93/21 31/80/21
f 26/82/22 25/94/22 29/83/22
f 27/85/23 31/95/23 29/86/23
f 30/88/24 32/96/24 28/89/24
o Cube.003_Cube.004
v 0.211576 0.414443 0.062008
v 0.211576 0.255251 0.062008
v 0.211576 0.414443 -0.041155
v 0.211576 0.255251 -0.041155
v 0.370768 0.414443 0.062008
v 0.370768 0.255251 0.062008
v 0.370768 0.414443 -0.041155
v 0.370768 0.255251 -0.041155
vt 0.0002 0.0002
vt 0.3331 0.3331
vt 0.3331 0.0002
vt 0.3335 0.3335
vt 0.6665 0.6665
vt 0.6665 0.3335
vt 0.3331 0.6669
vt 0.0002 0.9998
vt 0.0002 0.6669
vt 0.9998 0.0002
vt 0.6669 0.3331
vt 0.6669 0.0002
vt 0.6665 0.0002
vt 0.3335 0.3331
vt 0.6665 0.3331
vt 0.0002 0.6665
vt 0.3331 0.3335
vt 0.3331 0.6665
vt 0.0002 0.3331
vt 0.3335 0.6665
vt 0.3331 0.9998
vt 0.9998 0.3331
vt 0.3335 0.0002
vt 0.0002 0.3335
vn 1.0000 0.0000 0.0000
vn 0.0000 0.0000 1.0000
vn -1.0000 0.0000 0.0000
vn -0.0000 0.0000 -1.0000
vn 0.0000 -1.0000 0.0000
vn 0.0000 1.0000 0.0000
s off
f 36/97/25 33/98/25 34/99/25
f 40/100/26 35/101/26 36/102/26
f 38/103/27 39/104/27 40/105/27
f 34/106/28 37/107/28 38/108/28
f 35/109/29 37/110/29 33/111/29
f 38/112/30 36/113/30 34/114/30
f 36/97/25 35/115/25 33/98/25
f 40/100/26 39/116/26 35/101/26
f 38/103/27 37/117/27 39/104/27
f 34/106/28 33/118/28 37/107/28
f 35/109/29 39/119/29 37/110/29
f 38/112/30 40/120/30 36/113/30
o Cube.004_Cube.005
v 0.211576 0.743350 0.062008
v 0.211576 0.584157 0.062008
v 0.211576 0.743350 -0.041155
v 0.211576 0.584157 -0.041155
v 0.370768 0.743350 0.062008
v 0.370768 0.584157 0.062008
v 0.370768 0.743350 -0.041155
v 0.370768 0.584157 -0.041155
vt 0.6669 0.0002
vt 0.9998 0.3331
vt 0.9998 0.0002
vt 0.3335 0.3335
vt 0.6665 0.6665
vt 0.6665 0.3335
vt 0.3331 0.3335
vt 0.0002 0.6665
vt 0.0002 0.3335
vt 0.3331 0.6669
vt 0.0002 0.9998
vt 0.0002 0.6669
vt 0.3331 0.0002
vt 0.0002 0.3331
vt 0.3331 0.3331
vt 0.3335 0.3331
vt 0.6665 0.0002
vt 0.6665 0.3331
vt 0.6669 0.3331
vt 0.3335 0.6665
vt 0.3331 0.6665
vt 0.3331 0.9998
vt 0.0002 0.0002
vt 0.3335 0.0002
vn 1.0000 0.0000 0.0000
vn 0.0000 0.0000 1.0000
vn -1.0000 0.0000 0.0000
vn -0.0000 0.0000 -1.0000
vn 0.0000 -1.0000 0.0000
vn 0.0000 1.0000 0.0000
s off
f 44/121/31 41/122/31 42/123/31
f 48/124/32 43/125/32 44/126/32
f 46/127/33 47/128/33 48/129/33
f 42/130/34 45/131/34 46/132/34
f 43/133/35 45/134/35 41/135/35
f 46/136/36 44/137/36 42/138/36
f 44/121/31 43/139/31 41/122/31
f 48/124/32 47/140/32 43/125/32
f 46/127/33 45/141/33 47/128/33
f 42/130/34 41/142/34 45/131/34
f 43/133/35 47/143/35 45/134/35
f 46/136/36 48/144/36 44/137/36
o Cube.005_Cube.006
v -0.348525 0.743350 0.062008
v -0.348525 0.584157 0.062008
v -0.348525 0.743350 -0.041155
v -0.348525 0.584157 -0.041155
v -0.189333 0.743350 0.062008
v -0.189333 0.584157 0.062008
v -0.189333 0.743350 -0.041155
v -0.189333 0.584157 -0.041155
vt 0.6669 0.0002
vt 0.9998 0.3331
vt 0.9998 0.0002
vt 0.3335 0.3335
vt 0.6665 0.6665
vt 0.6665 0.3335
vt 0.6665 0.0002
vt 0.3335 0.3331
vt 0.3335 0.0002
vt 0.3331 0.0002
vt 0.0002 0.3331
vt 0.0002 0.0002
vt 0.3331 0.6669
vt 0.0002 0.9998
vt 0.3331 0.9998
vt 0.0002 0.6665
vt 0.3331 0.3335
vt 0.3331 0.6665
vt 0.6669 0.3331
vt 0.3335 0.6665
vt 0.6665 0.3331
vt 0.3331 0.3331
vt 0.0002 0.6669
vt 0.0002 0.3335
vn 1.0000 0.0000 0.0000
vn 0.0000 0.0000 1.0000
vn -1.0000 0.0000 0.0000
vn -0.0000 0.0000 -1.0000
vn 0.0000 -1.0000 0.0000
vn 0.0000 1.0000 0.0000
s off
f 52/145/37 49/146/37 50/147/37
f 56/148/38 51/149/38 52/150/38
f 54/151/39 55/152/39 56/153/39
f 50/154/40 53/155/40 54/156/40
f 51/157/41 53/158/41 49/159/41
f 54/160/42 52/161/42 50/162/42
f 52/145/37 51/163/37 49/146/37
f 56/148/38 55/164/38 51/149/38
f 54/151/39 53/165/39 55/152/39
f 50/154/40 49/166/40 53/155/40
f 51/157/41 55/167/41 53/158/41
f 54/160/42 56/168/42 52/161/42
o Cube.006_Cube.007
v -0.324871 1.521784 0.225060
v -0.324871 0.859375 0.225060
v -0.324871 1.521784 -0.204207
v -0.324871 0.859375 -0.204207
v 0.337539 1.521784 0.225060
v 0.337539 0.859375 0.225060
v 0.337538 1.521784 -0.204207
v 0.337538 0.859375 -0.204207
vn 1.0000 0.0000 -0.0000
vn 0.0000 0.0000 1.0000
vn -1.0000 0.0000 0.0000
vn -0.0000 0.0000 -1.0000
vn 0.0000 -1.0000 0.0000
vn 0.0000 1.0000 0.0000
s off
f 60//43 57//43 58//43
f 64//44 59//44 60//44
f 62//45 63//45 64//45
f 58//46 61//46 62//46
f 59//47 61//47 57//47
f 64//48 58//48 62//48
f 60//43 59//43 57//43
f 64//44 63//44 59//44
f 62//45 61//45 63//45
f 58//46 57//46 61//46
f 59//47 63//47 61//47
f 64//48 60//48 58//48
o Cube.007_Cube.008
v 0.430080 1.426130 -0.065871
v 0.430080 1.270827 -0.065871
v 0.530687 1.426130 -0.068525
v 0.530687 1.270827 -0.068525
v 0.434176 1.426130 0.089378
v 0.434176 1.270827 0.089378
v 0.534783 1.426130 0.086724
v 0.534783 1.270827 0.086724
vt 0.0002 0.0002
vt 0.3331 0.3331
vt 0.3331 0.0002
vt 0.3335 0.3335
vt 0.6665 0.6665
vt 0.6665 0.3335
vt 0.6669 0.0002
vt 0.9998 0.3331
vt 0.6669 0.3331
vt 0.3331 0.6669
vt 0.0002 0.9998
vt 0.0002 0.6669
vt 0.6665 0.0002
vt 0.3335 0.3331
vt 0.6665 0.3331
vt 0.0002 0.3335
vt 0.3331 0.6665
vt 0.0002 0.6665
vt 0.0002 0.3331
vt 0.3335 0.6665
vt 0.9998 0.0002
vt 0.3331 0.9998
vt 0.3335 0.0002
vt 0.3331 0.3335
vn 0.0264 -0.0000 0.9997
vn -0.9997 -0.0000 0.0264
vn -0.0264 0.0000 -0.9997
vn 0.9997 0.0000 -0.0264
vn 0.0000 -1.0000 -0.0000
vn -0.0000 1.0000 0.0000
s off
f 68/169/49 65/170/49 66/171/49
f 72/172/50 67/173/50 68/174/50
f 72/175/51 69/176/51 71/177/51
f 66/178/52 69/179/52 70/180/52
f 67/181/53 69/182/53 65/183/53
f 72/184/54 66/185/54 70/186/54
f 68/169/49 67/187/49 65/170/49
f 72/172/50 71/188/50 67/173/50
f 72/175/51 70/189/51 69/176/51
f 66/178/52 65/190/52 69/179/52
f 67/181/53 71/191/53 69/182/53
f 72/184/54 68/192/54 66/185/54
o Cube.008_Cube.009
v 0.430080 1.181704 -0.065871
v 0.430080 1.026401 -0.065871
v 0.530687 1.181704 -0.068525
v 0.530687 1.026401 -0.068525
v 0.434176 1.181704 0.089378
v 0.434176 1.026401 0.089378
v 0.534783 1.181704 0.086724
v 0.534783 1.026401 0.086724
vt 0.0002 0.0002
vt 0.3331 0.3331
vt 0.3331 0.0002
vt 0.3335 0.3335
vt 0.6665 0.6665
vt 0.6665 0.3335
vt 0.6669 0.0002
vt 0.9998 0.3331
vt 0.6669 0.3331
vt 0.3331 0.6669
vt 0.0002 0.9998
vt 0.0002 0.6669
vt 0.6665 0.0002
vt 0.3335 0.3331
vt 0.6665 0.3331
vt 0.0002 0.3335
vt 0.3331 0.6665
vt 0.0002 0.6665
vt 0.0002 0.3331
vt 0.3335 0.6665
vt 0.9998 0.0002
vt 0.3331 0.9998
vt 0.3335 0.0002
vt 0.3331 0.3335
vn 0.0264 -0.0000 0.9997
vn -0.9997 -0.0000 0.0264
vn -0.0264 0.0000 -0.9997
vn 0.9997 0.0000 -0.0264
vn 0.0000 -1.0000 0.0000
vn -0.0000 1.0000 0.0000
s off
f 76/193/55 73/194/55 74/195/55
f 80/196/56 75/197/56 76/198/56
f 80/199/57 77/200/57 79/201/57
f 74/202/58 77/203/58 78/204/58
f 75/205/59 77/206/59 73/207/59
f 80/208/60 74/209/60 78/210/60
f 76/193/55 75/211/55 73/194/55
f 80/196/56 79/212/56 75/197/56
f 80/199/57 78/213/57 77/200/57
f 74/202/58 73/214/58 77/203/58
f 75/205/59 79/215/59 77/206/59
f 80/208/60 76/216/60 74/209/60
o Cube.009_Cube.010
v 0.394400 0.956188 -0.117872
v 0.394400 0.695038 -0.117872
v 0.563576 0.956188 -0.122334
v 0.563577 0.695038 -0.122335
v 0.401287 0.956188 0.143188
v 0.401287 0.695038 0.143188
v 0.570463 0.956188 0.138725
v 0.570463 0.695038 0.138725
vt 0.0002 0.0002
vt 0.3331 0.3331
vt 0.3331 0.0002
vt 0.3335 0.0002
vt 0.6665 0.3331
vt 0.6665 0.0002
vt 0.3335 0.3335
vt 0.6665 0.6665
vt 0.3335 0.6665
vt 0.3331 0.6669
vt 0.0002 0.9998
vt 0.0002 0.6669
vt 0.3331 0.6665
vt 0.0002 0.3335
vt 0.0002 0.6665
vt 0.6669 0.0002
vt 0.9998 0.3331
vt 0.6669 0.3331
vt 0.0002 0.3331
vt 0.3335 0.3331
vt 0.6665 0.3335
vt 0.3331 0.9998
vt 0.3331 0.3335
vt 0.9998 0.0002
vn 0.0264 -0.0000 0.9997
vn -0.9997 -0.0000 0.0264
vn -0.0264 0.0000 -0.9997
vn 0.9997 0.0000 -0.0264
vn 0.0000 -1.0000 -0.0000
vn -0.0000 1.0000 -0.0000
s off
f 84/217/61 81/218/61 82/219/61
f 88/220/62 83/221/62 84/222/62
f 88/223/63 85/224/63 87/225/63
f 82/226/64 85/227/64 86/228/64
f 81/229/65 87/230/65 85/231/65
f 88/232/66 82/233/66 86/234/66
f 84/217/61 83/235/61 81/218/61
f 88/220/62 87/236/62 83/221/62
f 88/223/63 86/237/63 85/224/63
f 82/226/64 81/238/64 85/227/64
f 81/229/65 83/239/65 87/230/65
f 88/232/66 84/240/66 82/233/66
o Cube.010_Cube.011
v -0.513162 1.426130 -0.065870
v -0.513162 1.270827 -0.065870
v -0.412555 1.426130 -0.068524
v -0.412555 1.270827 -0.068524
v -0.509066 1.426130 0.089378
v -0.509066 1.270827 0.089378
v -0.408459 1.426130 0.086724
v -0.408459 1.270827 0.086724
vt 0.3335 0.3335
vt 0.6665 0.6665
vt 0.6665 0.3335
vt 0.0002 0.0002
vt 0.3331 0.3331
vt 0.3331 0.0002
vt 0.9998 0.0002
vt 0.6669 0.3331
vt 0.6669 0.0002
vt 0.3331 0.6669
vt 0.0002 0.9998
vt 0.0002 0.6669
vt 0.6665 0.0002
vt 0.3335 0.3331
vt 0.6665 0.3331
vt 0.0002 0.3335
vt 0.3331 0.6665
vt 0.0002 0.6665
vt 0.3335 0.6665
vt 0.0002 0.3331
vt 0.9998 0.3331
vt 0.3331 0.9998
vt 0.3335 0.0002
vt 0.3331 0.3335
vn 0.0264 -0.0000 0.9997
vn -0.9997 -0.0000 0.0264
vn -0.0264 0.0000 -0.9997
vn 0.9997 0.0000 -0.0264
vn 0.0000 -1.0000 0.0000
vn -0.0000 1.0000 0.0000
s off
f 92/241/67 89/242/67 90/243/67
f 96/244/68 91/245/68 92/246/68
f 94/247/69 95/248/69 96/249/69
f 90/250/70 93/251/70 94/252/70
f 91/253/71 93/254/71 89/255/71
f 96/256/72 90/257/72 94/258/72
f 92/241/67 91/259/67 89/242/67
f 96/244/68 95/260/68 91/245/68
f 94/247/69 93/261/69 95/248/69
f 90/250/70 89/262/70 93/251/70
f 91/253/71 95/263/71 93/254/71
f 96/256/72 92/264/72 90/257/72
o Cube.011_Cube.012
v -0.513162 1.181704 -0.065870
v -0.513162 1.026401 -0.065870
v -0.412555 1.181704 -0.068524
v -0.412555 1.026401 -0.068524
v -0.509066 1.181704 0.089378
v -0.509066 1.026401 0.089378
v -0.408459 1.181704 0.086724
v -0.408459 1.026401 0.086724
vt 0.0002 0.6669
vt 0.3331 0.9998
vt 0.3331 0.6669
vt 0.0002 0.0002
vt 0.3331 0.3331
vt 0.3331 0.0002
vt 0.9998 0.0002
vt 0.6669 0.3331
vt 0.6669 0.0002
vt 0.3331 0.3335
vt 0.0002 0.6665
vt 0.0002 0.3335
vt 0.6665 0.3331
vt 0.3335 0.0002
vt 0.3335 0.3331
vt 0.3335 0.3335
vt 0.6665 0.6665
vt 0.3335 0.6665
vt 0.0002 0.9998
vt 0.0002 0.3331
vt 0.9998 0.3331
vt 0.3331 0.6665
vt 0.6665 0.0002
vt 0.6665 0.3335
vn 0.0264 -0.0000 0.9997
vn -0.9997 -0.0000 0.0264
vn -0.0264 0.0000 -0.9997
vn 0.9997 0.0000 -0.0264
vn 0.0000 -1.0000 0.0000
vn -0.0000 1.0000 0.0000
s off
f 100/265/73 97/266/73 98/267/73
f 104/268/74 99/269/74 100/270/74
f 102/271/75 103/272/75 104/273/75
f 98/274/76 101/275/76 102/276/76
f 97/277/77 103/278/77 101/279/77
f 104/280/78 98/281/78 102/282/78
f 100/265/73 99/283/73 97/266/73
f 104/268/74 103/284/74 99/269/74
f 102/271/75 101/285/75 103/272/75
f 98/274/76 97/286/76 101/275/76
f 97/277/77 99/287/77 103/278/77
f 104/280/78 100/288/78 98/281/78
o Cube.012_Cube.013
v -0.548842 0.956188 -0.117871
v -0.548842 0.695038 -0.117872
v -0.379665 0.956188 -0.122334
v -0.379665 0.695038 -0.122334
v -0.541955 0.956188 0.143188
v -0.541955 0.695038 0.143188
v -0.372779 0.956188 0.138725
v -0.372779 0.695038 0.138725
vt 0.0002 0.0002
vt 0.3331 0.3331
vt 0.3331 0.0002
vt 0.3335 0.0002
vt 0.6665 0.3331
vt 0.6665 0.0002
vt 0.6669 0.0002
vt 0.9998 0.3331
vt 0.6669 0.3331
vt 0.3331 0.3335
vt 0.0002 0.6665
vt 0.0002 0.3335
vt 0.6665 0.3335
vt 0.3335 0.6665
vt 0.6665 0.6665
vt 0.0002 0.6669
vt 0.3331 0.9998
vt 0.0002 0.9998
vt 0.0002 0.3331
vt 0.3335 0.3331
vt 0.9998 0.0002
vt 0.3331 0.6665
vt 0.3335 0.3335
vt 0.3331 0.6669
vn 0.0264 -0.0000 0.9997
vn -0.9997 -0.0000 0.0264
vn -0.0264 0.0000 -0.9997
vn 0.9997 -0.0000 -0.0264
vn 0.0000 -1.0000 -0.0000
vn -0.0000 1.0000 -0.0000
s off
f 108/289/79 105/290/79 106/291/79
f 112/292/80 107/293/80 108/294/80
f 112/295/81 109/296/81 111/297/81
f 106/298/82 109/299/82 110/300/82
f 107/301/83 109/302/83 105/303/83
f 112/304/84 106/305/84 110/306/84
f 108/289/79 107/307/79 105/290/79
f 112/292/80 111/308/80 107/293/80
f 112/295/81 110/309/81 109/296/81
f 106/298/82 105/310/82 109/299/82
f 107/301/83 111/311/83 109/302/83
f 112/304/84 108/312/84 106/305/84
o Cube.013_Cube.014
v -0.324871 1.521784 0.225060
v -0.324871 0.859375 0.225060
v -0.324871 1.521784 -0.204207
v -0.324871 0.859375 -0.204207
v 0.337539 1.521784 0.225060
v 0.337539 0.859375 0.225060
v 0.337538 1.521784 -0.204207
v 0.337538 0.859375 -0.204207
vt 0.6669 0.0002
vt 0.9998 0.3331
vt 0.9998 0.0002
vt 0.3335 0.3335
vt 0.6665 0.6665
vt 0.6665 0.3335
vt 0.6665 0.0002
vt 0.3335 0.3331
vt 0.3335 0.0002
vt 0.3331 0.0002
vt 0.0002 0.3331
vt 0.0002 0.0002
vt 0.3331 0.3335
vt 0.0002 0.6665
vt 0.3331 0.6665
vt 0.0002 0.6669
vt 0.3331 0.9998
vt 0.0002 0.9998
vt 0.6669 0.3331
vt 0.3335 0.6665
vt 0.6665 0.3331
vt 0.3331 0.3331
vt 0.0002 0.3335
vt 0.3331 0.6669
vn 1.0000 0.0000 -0.0000
vn 0.0000 0.0000 1.0000
vn -1.0000 0.0000 0.0000
vn -0.0000 0.0000 -1.0000
vn 0.0000 -1.0000 0.0000
vn 0.0000 1.0000 0.0000
s off
f 116/313/85 113/314/85 114/315/85
f 120/316/86 115/317/86 116/318/86
f 118/319/87 119/320/87 120/321/87
f 114/322/88 117/323/88 118/324/88
f 115/325/89 117/326/89 113/327/89
f 120/328/90 114/329/90 118/330/90
f 116/313/85 115/331/85 113/314/85
f 120/316/86 119/332/86 115/317/86
f 118/319/87 117/333/87 119/320/87
f 114/322/88 113/334/88 117/323/88
f 115/325/89 119/335/89 117/326/89
f 120/328/90 116/336/90 114/329/90
o Cube.014_Cube.015
v 0.096217 1.640959 -0.065829
v 0.096217 1.481766 -0.065829
v 0.096217 1.640959 0.037334
v 0.096217 1.481766 0.037334
v -0.062975 1.640959 -0.065829
v -0.062975 1.481766 -0.065829
v -0.062975 1.640959 0.037334
v -0.062975 1.481766 0.037334
vn -1.0000 0.0000 0.0000
vn 0.0000 0.0000 -1.0000
vn 1.0000 0.0000 0.0000
vn 0.0000 0.0000 1.0000
vn 0.0000 -1.0000 0.0000
vn 0.0000 1.0000 0.0000
s off
f 124//91 121//91 122//91
f 128//92 123//92 124//92
f 126//93 127//93 128//93
f 122//94 125//94 126//94
f 123//95 125//95 121//95
f 128//96 122//96 126//96
f 124//91 123//91 121//91
f 128//92 127//92 123//92
f 126//93 125//93 127//93
f 122//94 121//94 125//94
f 123//95 127//95 125//95
f 128//96 124//96 122//96
o Cube.015_Cube.016
v -0.216193 2.008537 0.261166
v -0.216193 1.563483 0.261166
v -0.216193 2.008537 -0.240312
v -0.216193 1.563483 -0.240312
v 0.228860 2.008537 0.261166
v 0.228860 1.563483 0.261166
v 0.228860 2.008537 -0.240312
v 0.228860 1.563483 -0.240312
vt 0.6669 0.0002
vt 0.9998 0.3331
vt 0.9998 0.0002
vt 0.0002 0.3335
vt 0.3331 0.6665
vt 0.3331 0.3335
vt 0.6665 0.3335
vt 0.3335 0.6665
vt 0.3335 0.3335
vt 0.3331 0.0002
vt 0.0002 0.3331
vt 0.0002 0.0002
vt 0.6665 0.0002
vt 0.3335 0.3331
vt 0.6665 0.3331
vt 0.0002 0.6669
vt 0.3331 0.9998
vt 0.0002 0.9998
vt 0.6669 0.3331
vt 0.0002 0.6665
vt 0.6665 0.6665
vt 0.3331 0.3331
vt 0.3335 0.0002
vt 0.3331 0.6669
vn 1.0000 0.0000 -0.0000
vn 0.0000 0.0000 1.0000
vn -1.0000 0.0000 0.0000
vn -0.0000 0.0000 -1.0000
vn 0.0000 -1.0000 0.0000
vn 0.0000 1.0000 0.0000
s off
f 132/337/97 129/338/97 130/339/97
f 136/340/98 131/341/98 132/342/98
f 134/343/99 135/344/99 136/345/99
f 130/346/100 133/347/100 134/348/100
f 131/349/101 133/350/101 129/351/101
f 136/352/102 130/353/102 134/354/102
f 132/337/97 131/355/97 129/338/97
f 136/340/98 135/356/98 131/341/98
f 134/343/99 133/357/99 135/344/99
f 130/346/100 129/358/100 133/347/100
f 131/349/101 135/359/101 133/350/101
f 136/352/102 132/360/102 130/353/102
