# Blender v2.77 (sub 0) OBJ File: ''
# www.blender.org
o Icosphere
v 0.000000 -0.051420 0.000000
v 0.419587 5.199594 0.304844
v -0.160264 5.199594 0.493253
v -0.518638 5.199596 -0.000000
v -0.160264 5.199594 -0.493253
v 0.419587 5.199594 -0.304844
v 0.680688 6.195463 2.094975
v -1.782095 6.195462 1.294754
v -1.782095 6.195462 -1.294754
v 0.680688 6.195463 -2.094975
v 2.202790 6.195453 0.000000
v 0.000001 7.556848 0.000000
v -0.162456 -0.005675 0.499995
v 0.425323 -0.005674 0.309011
v 0.146754 5.154912 0.451652
v 0.474898 5.154913 -0.000000
v 0.425323 -0.005674 -0.309011
v -0.525730 -0.005672 0.000000
v -0.384200 5.154913 0.279137
v -0.162456 -0.005675 -0.499995
v -0.384200 5.154913 -0.279137
v 0.146754 5.154912 -0.451652
v 2.342262 5.094052 0.761035
v 2.342262 5.094052 -0.761035
v 0.000001 5.094052 2.462795
v 1.447597 5.094052 1.992442
v -2.342259 5.094052 0.761035
v -1.447594 5.094052 1.992442
v -1.447594 5.094052 -1.992442
v -2.342259 5.094052 -0.761035
v 1.447597 5.094052 -1.992442
v 0.000001 5.094052 -2.462795
v 1.694870 6.388833 1.231390
v -0.647391 6.388837 1.992430
v -2.094970 6.388832 0.000000
v -0.647391 6.388837 -1.992430
v 1.694870 6.388833 -1.231390
v 0.400096 7.189039 1.231386
v 1.294766 7.189033 0.000000
v -1.047481 7.189039 0.761032
v -1.047481 7.189039 -0.761032
v 0.400096 7.189039 -1.231386
v 0.425323 -0.005674 0.309011
v 0.425323 -0.005674 0.309011
v 0.425323 -0.005674 0.309011
v 0.425323 -0.005674 0.309011
v 0.419587 5.199594 0.304844
v 0.419587 5.199594 0.304844
v 0.419587 5.199594 0.304844
v 0.419587 5.199594 0.304844
v 0.146754 5.154912 0.451652
v 0.146754 5.154912 0.451652
v 0.146754 5.154912 0.451652
v 0.146754 5.154912 0.451652
v 0.146754 5.154912 0.451652
v -0.160264 5.199594 0.493253
v -0.160264 5.199594 0.493253
v -0.160264 5.199594 0.493253
v -0.160264 5.199594 0.493253
v 0.474898 5.154913 -0.000000
v 0.474898 5.154913 -0.000000
v 0.474898 5.154913 -0.000000
v 0.474898 5.154913 -0.000000
v 0.474898 5.154913 -0.000000
v 0.425323 -0.005674 -0.309011
v 0.425323 -0.005674 -0.309011
v 0.425323 -0.005674 -0.309011
v 0.425323 -0.005674 -0.309011
v 0.419587 5.199594 -0.304844
v 0.419587 5.199594 -0.304844
v 0.419587 5.199594 -0.304844
v 0.419587 5.199594 -0.304844
v -0.384200 5.154913 0.279137
v -0.384200 5.154913 0.279137
v -0.384200 5.154913 0.279137
v -0.384200 5.154913 0.279137
v -0.384200 5.154913 0.279137
v -0.518638 5.199596 -0.000000
v -0.518638 5.199596 -0.000000
v -0.518638 5.199596 -0.000000
v -0.518638 5.199596 -0.000000
v -0.384200 5.154913 -0.279137
v -0.384200 5.154913 -0.279137
v -0.384200 5.154913 -0.279137
v -0.384200 5.154913 -0.279137
v -0.384200 5.154913 -0.279137
v -0.160264 5.199594 -0.493253
v -0.160264 5.199594 -0.493253
v -0.160264 5.199594 -0.493253
v -0.160264 5.199594 -0.493253
v 0.146754 5.154912 -0.451652
v 0.146754 5.154912 -0.451652
v 0.146754 5.154912 -0.451652
v 0.146754 5.154912 -0.451652
v 0.146754 5.154912 -0.451652
v 2.342262 5.094052 0.761035
v 2.342262 5.094052 0.761035
v 2.342262 5.094052 0.761035
v 2.342262 5.094052 0.761035
v 2.342262 5.094052 0.761035
v 2.342262 5.094052 -0.761035
v 2.342262 5.094052 -0.761035
v 2.342262 5.094052 -0.761035
v 2.342262 5.094052 -0.761035
v 2.342262 5.094052 -0.761035
v 2.202790 6.195453 0.000000
v 2.202790 6.195453 0.000000
v 2.202790 6.195453 0.000000
v 2.202790 6.195453 0.000000
v 0.000001 5.094052 2.462795
v 0.000001 5.094052 2.462795
v 0.000001 5.094052 2.462795
v 0.000001 5.094052 2.462795
v 0.000001 5.094052 2.462795
v 1.447597 5.094052 1.992442
v 1.447597 5.094052 1.992442
v 1.447597 5.094052 1.992442
v 1.447597 5.094052 1.992442
v 1.447597 5.094052 1.992442
v 0.680688 6.195463 2.094975
v 0.680688 6.195463 2.094975
v 0.680688 6.195463 2.094975
v 0.680688 6.195463 2.094975
v -2.342259 5.094052 0.761035
v -2.342259 5.094052 0.761035
v -2.342259 5.094052 0.761035
v -2.342259 5.094052 0.761035
v -2.342259 5.094052 0.761035
v -1.447594 5.094052 1.992442
v -1.447594 5.094052 1.992442
v -1.447594 5.094052 1.992442
v -1.447594 5.094052 1.992442
v -1.447594 5.094052 1.992442
v -1.782095 6.195462 1.294754
v -1.782095 6.195462 1.294754
v -1.782095 6.195462 1.294754
v -1.782095 6.195462 1.294754
v -1.447594 5.094052 -1.992442
v -1.447594 5.094052 -1.992442
v -1.447594 5.094052 -1.992442
v -1.447594 5.094052 -1.992442
v -1.447594 5.094052 -1.992442
v -2.342259 5.094052 -0.761035
v -2.342259 5.094052 -0.761035
v -2.342259 5.094052 -0.761035
v -2.342259 5.094052 -0.761035
v -2.342259 5.094052 -0.761035
v -1.782095 6.195462 -1.294754
v -1.782095 6.195462 -1.294754
v -1.782095 6.195462 -1.294754
v -1.782095 6.195462 -1.294754
v 1.447597 5.094052 -1.992442
v 1.447597 5.094052 -1.992442
v 1.447597 5.094052 -1.992442
v 1.447597 5.094052 -1.992442
v 1.447597 5.094052 -1.992442
v 0.000001 5.094052 -2.462795
v 0.000001 5.094052 -2.462795
v 0.000001 5.094052 -2.462795
v 0.000001 5.094052 -2.462795
v 0.000001 5.094052 -2.462795
v 0.680688 6.195463 -2.094975
v 0.680688 6.195463 -2.094975
v 0.680688 6.195463 -2.094975
v 0.680688 6.195463 -2.094975
v 1.694870 6.388833 1.231390
v 1.694870 6.388833 1.231390
v 1.694870 6.388833 1.231390
v 1.694870 6.388833 1.231390
v 1.694870 6.388833 1.231390
v -0.647391 6.388837 1.992430
v -0.647391 6.388837 1.992430
v -0.647391 6.388837 1.992430
v -0.647391 6.388837 1.992430
v -0.647391 6.388837 1.992430
v -2.094970 6.388832 0.000000
v -2.094970 6.388832 0.000000
v -2.094970 6.388832 0.000000
v -2.094970 6.388832 0.000000
v -2.094970 6.388832 0.000000
v -0.647391 6.388837 -1.992430
v -0.647391 6.388837 -1.992430
v -0.647391 6.388837 -1.992430
v -0.647391 6.388837 -1.992430
v -0.647391 6.388837 -1.992430
v 1.694870 6.388833 -1.231390
v 1.694870 6.388833 -1.231390
v 1.694870 6.388833 -1.231390
v 1.694870 6.388833 -1.231390
v 1.694870 6.388833 -1.231390
v 0.400096 7.189039 1.231386
v 0.400096 7.189039 1.231386
v 0.400096 7.189039 1.231386
v 0.400096 7.189039 1.231386
v 0.400096 7.189039 1.231386
v 1.294766 7.189033 0.000000
v 1.294766 7.189033 0.000000
v 1.294766 7.189033 0.000000
v 1.294766 7.189033 0.000000
v 1.294766 7.189033 0.000000
v 0.000001 7.556848 0.000000
v 0.000001 7.556848 0.000000
v 0.000001 7.556848 0.000000
v 0.000001 7.556848 0.000000
v -1.047481 7.189039 0.761032
v -1.047481 7.189039 0.761032
v -1.047481 7.189039 0.761032
v -1.047481 7.189039 0.761032
v -1.047481 7.189039 0.761032
v -1.047481 7.189039 -0.761032
v -1.047481 7.189039 -0.761032
v -1.047481 7.189039 -0.761032
v -1.047481 7.189039 -0.761032
v -1.047481 7.189039 -0.761032
v 0.400096 7.189039 -1.231386
v 0.400096 7.189039 -1.231386
v 0.400096 7.189039 -1.231386
v 0.400096 7.189039 -1.231386
v 0.400096 7.189039 -1.231386
v -0.162456 -0.005675 0.499995
v -0.162456 -0.005675 0.499995
v -0.162456 -0.005675 0.499995
v -0.162456 -0.005675 0.499995
v -0.525730 -0.005672 0.000000
v -0.525730 -0.005672 0.000000
v -0.525730 -0.005672 0.000000
v -0.525730 -0.005672 0.000000
v -0.162456 -0.005675 -0.499995
v -0.162456 -0.005675 -0.499995
v -0.162456 -0.005675 -0.499995
v -0.162456 -0.005675 -0.499995
vt 0.4171 0.6948
vt 0.4019 0.7415
vt 0.4568 0.7237
vt 0.4863 0.6468
vt 0.0005 0.6472
vt 0.4821 0.6183
vt 0.4568 0.6660
vt 0.4019 0.6482
vt 0.3680 0.6948
vt 0.2941 0.4297
vt 0.2815 0.4557
vt 0.4643 0.5007
vt 0.1968 0.7192
vt 0.1842 0.7452
vt 0.3670 0.7902
vt 0.6519 0.3353
vt 0.6394 0.3614
vt 0.8221 0.4064
vt 0.0130 0.7192
vt 0.0005 0.7452
vt 0.1832 0.7902
vt 0.5786 0.0715
vt 0.5660 0.0976
vt 0.7488 0.1426
vt 0.2941 0.4297
vt 0.4643 0.5007
vt 0.4643 0.3586
vt 0.1968 0.7192
vt 0.3670 0.7902
vt 0.3670 0.6482
vt 0.6519 0.3353
vt 0.8221 0.4064
vt 0.8221 0.2643
vt 0.0130 0.7192
vt 0.1832 0.7902
vt 0.1832 0.6482
vt 0.5786 0.0715
vt 0.7488 0.1426
vt 0.7488 0.0005
vt 0.9380 0.4064
vt 0.8231 0.3589
vt 0.9380 0.3216
vt 0.9805 0.6381
vt 0.9805 0.7624
vt 0.9022 0.6704
vt 0.4860 0.8942
vt 0.3881 0.9673
vt 0.4860 0.9995
vt 0.4501 0.0656
vt 0.5650 0.1154
vt 0.5211 0.0005
vt 0.1138 0.1834
vt 0.2220 0.1407
vt 0.1608 0.2633
vt 0.1154 0.9121
vt 0.0005 0.8286
vt 0.1154 0.7912
vt 0.1154 0.9121
vt 0.0005 0.9494
vt 0.0005 0.8286
vt 0.2815 0.5491
vt 0.3965 0.5017
vt 0.3965 0.5864
vt 0.6394 0.9540
vt 0.7543 0.8705
vt 0.7543 0.9914
vt 0.6394 0.9540
vt 0.6394 0.8332
vt 0.7543 0.8705
vt 0.6394 0.8332
vt 0.7543 0.7858
vt 0.7543 0.8705
vt 0.0378 0.3586
vt 0.1213 0.4736
vt 0.0005 0.4736
vt 0.0378 0.3586
vt 0.1587 0.3586
vt 0.1213 0.4736
vt 0.4128 0.1172
vt 0.3439 0.2181
vt 0.4491 0.2136
vt 0.1213 0.4736
vt 0.0378 0.5885
vt 0.0005 0.4736
vt 0.1213 0.4736
vt 0.1587 0.5885
vt 0.0378 0.5885
vt 0.1597 0.5542
vt 0.2625 0.4826
vt 0.2805 0.5772
vt 0.9380 0.3216
vt 0.8231 0.2381
vt 0.9380 0.2008
vt 0.9380 0.3216
vt 0.8231 0.3589
vt 0.8231 0.2381
vt 0.9854 0.7858
vt 0.9854 0.9021
vt 0.8938 0.8877
vt 0.1230 0.0587
vt 0.2220 0.1407
vt 0.1138 0.1834
vt 0.1230 0.0587
vt 0.2220 0.0005
vt 0.2220 0.1407
vt 0.8928 0.9209
vt 0.7900 0.8493
vt 0.7719 0.9439
vt 0.4501 0.1865
vt 0.5650 0.1154
vt 0.4501 0.0656
vt 0.4501 0.1865
vt 0.5650 0.2575
vt 0.5650 0.1154
vt 0.2165 0.8851
vt 0.3231 0.8987
vt 0.3231 0.7912
vt 0.3349 0.0006
vt 0.4128 0.1172
vt 0.4491 0.0005
vt 0.3349 0.0006
vt 0.2731 0.1285
vt 0.4128 0.1172
vt 0.2731 0.1285
vt 0.3439 0.2181
vt 0.4128 0.1172
vt 0.9012 0.7455
vt 0.7946 0.6516
vt 0.9012 0.6381
vt 0.9012 0.7455
vt 0.7719 0.7848
vt 0.7946 0.6516
vt 0.1597 0.4190
vt 0.2625 0.4826
vt 0.1597 0.5542
vt 0.9703 0.1258
vt 0.8823 0.0398
vt 0.9703 0.0005
vt 0.2155 0.9314
vt 0.1164 0.8732
vt 0.2155 0.7912
vt 0.0005 0.1307
vt 0.1138 0.1834
vt 0.0239 0.2571
vt 0.8928 0.9209
vt 0.8928 0.7858
vt 0.7900 0.8493
vt 0.7709 0.7848
vt 0.7709 0.5966
vt 0.6394 0.7311
vt 0.0005 0.6931
vt 0.0130 0.7192
vt 0.1832 0.6482
vt 0.5660 0.2077
vt 0.6695 0.2578
vt 0.6695 0.1436
vt 0.7709 0.5956
vt 0.7709 0.4074
vt 0.6394 0.5419
vt 0.6394 0.3093
vt 0.6519 0.3353
vt 0.8221 0.2643
vt 0.2731 0.1285
vt 0.2230 0.2320
vt 0.3439 0.2181
vt 0.5623 0.7512
vt 0.3881 0.8222
vt 0.5623 0.8932
vt 0.1842 0.6931
vt 0.1968 0.7192
vt 0.3670 0.6482
vt 0.1597 0.4190
vt 0.2805 0.3586
vt 0.2625 0.4826
vt 0.8813 0.1887
vt 0.8813 0.0005
vt 0.7498 0.1351
vt 0.2815 0.4036
vt 0.2941 0.4297
vt 0.4643 0.3586
vt 0.0005 0.1307
vt 0.1230 0.0587
vt 0.1138 0.1834
vt 0.9035 0.5956
vt 0.9035 0.4074
vt 0.7719 0.5419
vt 0.5660 0.0455
vt 0.5786 0.0715
vt 0.7488 0.0005
vt 0.5623 0.2643
vt 0.5369 0.7460
vt 0.5623 0.7501
vt 0.5623 0.2643
vt 0.5075 0.2644
vt 0.5369 0.7460
vt 0.5075 0.2644
vt 0.5082 0.7502
vt 0.5369 0.7460
vt 0.5075 0.2644
vt 0.4873 0.7460
vt 0.5082 0.7502
vt 0.4863 0.3576
vt 0.4863 0.3110
vt 0.0047 0.3370
vt 0.4863 0.3110
vt 0.0005 0.3110
vt 0.0047 0.3370
vt 0.4863 0.3110
vt 0.0047 0.2849
vt 0.0005 0.3110
vt 0.4863 0.3110
vt 0.4863 0.2643
vt 0.0047 0.2849
vt 0.5835 0.2644
vt 0.5842 0.7502
vt 0.5633 0.7460
vt 0.4821 0.6183
vt 0.0005 0.5895
vt 0.4863 0.5899
vt 0.4821 0.6183
vt 0.0005 0.6472
vt 0.0005 0.5895
vt 0.5835 0.2644
vt 0.6129 0.7460
vt 0.5842 0.7502
vt 0.5835 0.2644
vt 0.6384 0.2643
vt 0.6129 0.7460
vt 0.6384 0.2643
vt 0.6384 0.7501
vt 0.6129 0.7460
vn 0.0330 -0.9943 0.1017
vn 0.9840 0.0012 0.1783
vn -0.0865 -0.9943 0.0629
vn -0.0865 -0.9943 -0.0629
vn 0.0330 -0.9943 -0.1017
vn -0.0849 -0.9879 0.1294
vn -0.1493 -0.9879 -0.0408
vn -0.0073 -0.9879 -0.1546
vn 0.1448 -0.9879 -0.0548
vn 0.0968 -0.9879 0.1208
vn -0.0467 -0.9983 -0.0340
vn 0.0179 -0.9983 -0.0549
vn 0.0578 -0.9983 0.0000
vn 0.0179 -0.9983 0.0549
vn -0.0467 -0.9983 0.0340
vn 0.4089 0.6617 0.6284
vn -0.4713 0.6617 0.5831
vn -0.7002 0.6617 -0.2680
vn 0.0385 0.6617 -0.7488
vn 0.7240 0.6617 -0.1947
vn 0.2680 0.9435 -0.1947
vn 0.4911 0.7947 -0.3568
vn 0.4089 0.6617 -0.6284
vn -0.1024 0.9435 -0.3151
vn -0.1876 0.7947 -0.5773
vn -0.4713 0.6617 -0.5831
vn -0.3313 0.9435 0.0000
vn -0.6071 0.7947 0.0000
vn -0.7002 0.6617 0.2680
vn -0.1024 0.9435 0.3151
vn -0.1876 0.7947 0.5773
vn 0.0385 0.6617 0.7488
vn 0.2680 0.9435 0.1947
vn 0.4911 0.7947 0.3568
vn 0.7240 0.6617 0.1947
vn 0.8897 0.3304 -0.3151
vn 0.7947 0.1876 -0.5773
vn 0.5746 0.3304 -0.7488
vn -0.0247 0.3304 -0.9435
vn -0.3035 0.1876 -0.9342
vn -0.5346 0.3304 -0.7779
vn -0.9050 0.3304 -0.2680
vn -0.9822 0.1876 0.0000
vn -0.9050 0.3304 0.2680
vn -0.5346 0.3304 0.7779
vn -0.3035 0.1876 0.9342
vn -0.0247 0.3304 0.9435
vn 0.5746 0.3304 0.7488
vn 0.7947 0.1876 0.5773
vn 0.8897 0.3304 0.3151
vn 0.3066 0.1256 -0.9435
vn -0.0101 -0.9995 0.0310
vn -0.1493 -0.9879 0.0408
vn -0.8026 0.1256 -0.5831
vn 0.0264 -0.9995 0.0191
vn -0.0073 -0.9879 0.1546
vn -0.8026 0.1256 0.5831
vn 0.0264 -0.9995 -0.0191
vn 0.1448 -0.9879 0.0548
vn 0.3066 0.1256 0.9435
vn -0.0101 -0.9995 -0.0310
vn 0.0968 -0.9879 -0.1208
vn 0.9921 0.1256 0.0000
vn -0.0326 -0.9995 0.0000
vn -0.0849 -0.9879 -0.1294
vn 0.4737 0.0012 -0.8807
vn 0.3090 -0.0096 -0.9510
vn 0.1344 0.0012 -0.9909
vn -0.6912 0.0012 -0.7227
vn -0.8090 -0.0096 -0.5878
vn -0.9009 0.0012 -0.4341
vn -0.9009 0.0012 0.4341
vn -0.8090 -0.0096 0.5878
vn -0.6912 0.0012 0.7227
vn 0.9840 0.0012 -0.1783
vn 1.0000 -0.0096 0.0000
vn 0.1069 -0.9943 0.0000
vn 0.1344 0.0012 0.9909
vn 0.3090 -0.0096 0.9510
vn 0.4737 0.0012 0.8807
s off
f 1/1/1 44/2/1 220/3/1
f 47/4/2 43/5/2 60/6/2
f 1/1/3 220/3/3 224/7/3
f 1/1/4 224/7/4 228/8/4
f 1/1/5 228/8/5 66/9/5
f 48/10/6 62/11/6 96/12/6
f 56/13/7 51/14/7 110/15/7
f 78/16/8 73/17/8 124/18/8
f 87/19/9 82/20/9 138/21/9
f 70/22/10 91/23/10 152/24/10
f 50/25/11 98/26/11 116/27/11
f 59/28/12 112/29/12 130/30/12
f 81/31/13 126/32/13 144/33/13
f 90/34/14 140/35/14 158/36/14
f 72/37/15 154/38/15 102/39/15
f 121/40/16 166/41/16 191/42/16
f 135/43/17 171/44/17 205/45/17
f 149/46/18 176/47/18 210/48/18
f 163/49/19 181/50/19 215/51/19
f 107/52/20 186/53/20 197/54/20
f 196/55/21 216/56/21 201/57/21
f 39/58/22 188/59/22 217/60/22
f 187/61/23 165/62/23 219/63/23
f 218/64/24 211/65/24 204/66/24
f 42/67/25 183/68/25 212/69/25
f 182/70/26 151/71/26 214/72/26
f 213/73/27 206/74/27 203/75/27
f 41/76/28 178/77/28 207/78/28
f 177/79/29 137/80/29 209/81/29
f 208/82/30 192/83/30 202/84/30
f 40/85/31 173/86/31 193/87/31
f 172/88/32 123/89/32 195/90/32
f 194/91/33 198/92/33 12/93/33
f 38/94/34 168/95/34 199/96/34
f 167/97/35 109/98/35 200/99/35
f 101/100/36 189/101/36 106/102/36
f 24/103/37 155/104/37 190/105/37
f 153/106/38 164/107/38 37/108/38
f 157/109/39 184/110/39 162/111/39
f 32/112/40 141/113/40 185/114/40
f 139/115/41 150/116/41 36/117/41
f 143/118/42 179/119/42 148/120/42
f 30/121/43 127/122/43 180/123/43
f 125/124/44 136/125/44 35/126/44
f 129/127/45 174/128/45 134/129/45
f 28/130/46 113/131/46 175/132/46
f 111/133/47 122/134/47 34/135/47
f 115/136/48 169/137/48 120/138/48
f 26/139/49 99/140/49 170/141/49
f 97/142/50 108/143/50 33/144/50
f 156/145/51 159/146/51 10/147/51
f 31/148/52 93/149/52 160/150/52
f 92/151/53 89/152/53 161/153/53
f 142/154/54 145/155/54 9/156/54
f 29/157/55 84/158/55 146/159/55
f 83/160/56 80/161/56 147/162/56
f 128/163/57 131/164/57 8/165/57
f 27/166/58 75/167/58 132/168/58
f 74/169/59 58/170/59 133/171/59
f 114/172/60 117/173/60 7/174/60
f 25/175/61 53/176/61 118/177/61
f 52/178/62 49/179/62 119/180/62
f 100/181/63 103/182/63 11/183/63
f 23/184/64 63/185/64 104/186/64
f 61/187/65 71/188/65 105/189/65
f 65/190/66 94/191/66 69/192/66
f 17/193/67 230/194/67 95/195/67
f 229/196/68 88/197/68 22/198/68
f 231/199/69 85/200/69 5/201/69
f 20/202/70 226/203/70 86/204/70
f 225/205/71 79/206/71 21/207/71
f 227/208/72 76/209/72 4/210/72
f 18/211/73 222/212/73 77/213/73
f 221/214/74 57/215/74 19/216/74
f 64/217/75 67/218/75 6/219/75
f 16/220/76 45/221/76 68/222/76
f 44/2/77 1/1/77 66/9/77
f 223/223/78 54/224/78 3/225/78
f 13/226/79 46/227/79 55/228/79
f 14/229/80 2/230/80 15/231/80
